<svg xmlns="http://www.w3.org/2000/svg" width="28" height="28" fill="none"><g clip-path="url(#clip0_1985_15588)" fill="#fff"><path d="M23.479 6.91H18.95V5.438A5.443 5.443 0 0013.514 0a5.443 5.443 0 00-5.436 5.437V6.91H4.177a.596.596 0 00-.596.595L.232 27.404c0 .33.267.596.596.596h26.344c.33 0 .596-.267.596-.596L24.075 7.506a.596.596 0 00-.596-.595zM9.269 5.438a4.25 4.25 0 014.245-4.245 4.25 4.25 0 014.245 4.245V6.91H9.27V5.437zm17.308 21.371H1.424L4.772 8.102h3.305v2.624a1.072 1.072 0 101.191 0V8.102h8.492v2.624a1.072 1.072 0 101.191 0V8.102h3.932l3.694 18.706z"/><path d="M23 8H4.5L1 27h25.827L23 8z"/></g><defs><clipPath id="clip0_1985_15588"><path fill="#fff" d="M0 0h28v28H0z"/></clipPath></defs></svg>