<svg width="260" height="260" viewBox="0 0 260 260" fill="none" xmlns="http://www.w3.org/2000/svg">
<g clip-path="url(#clip0_1329_13263)">
<path d="M260 129.999C260 201.919 201.719 260.08 130.002 260.08C58.2853 260.08 0.00439453 201.919 0.00439453 129.999C0.00439453 58.0788 58.2853 -0.0822754 130.002 -0.0822754C201.719 -0.0822754 260 58.0788 260 129.999Z" fill="white"/>
<path d="M134.887 94.0481C130.632 92.8102 127.034 90.7183 124.094 87.7713C121.198 84.8373 119.229 81.4057 118.188 77.4773C117.161 73.5064 117.257 69.4901 118.475 65.4284C119.706 61.3237 121.82 57.8948 124.819 55.1409C127.859 52.3995 131.427 50.5783 135.522 49.677C139.616 48.7762 143.791 48.9442 148.047 50.1821C151.824 51.2806 155.011 53.0906 157.607 55.6117C160.258 58.1027 162.19 61.1052 163.402 64.6187L155.63 67.8666C153.834 62.8356 150.462 59.6002 145.511 58.1605C142.776 57.3648 140.186 57.2624 137.743 57.8536C135.299 58.4443 133.177 59.6169 131.376 61.3709C129.619 63.1379 128.336 65.3677 127.528 68.061C126.708 70.7974 126.563 73.405 127.094 75.8835C127.668 78.3749 128.855 80.5562 130.655 82.4278C132.467 84.2559 134.783 85.5808 137.606 86.4015C140.081 87.1214 142.415 87.289 144.608 86.9038C146.844 86.5316 148.814 85.7099 150.517 84.4387L151.556 80.9756L139.701 77.5282L141.952 70.0247L162.6 76.0293L158.848 88.5351C155.868 91.3872 152.234 93.3518 147.945 94.4286C143.713 95.4757 139.36 95.3484 134.887 94.0481Z" fill="black"/>
<path d="M67.1163 111.621C64.2168 114.928 60.7974 117.292 56.8589 118.715C52.9496 120.103 48.9631 120.454 44.8991 119.768C40.801 119.053 37.1241 117.311 33.8682 114.543C30.5781 111.747 28.277 108.436 26.9648 104.611C25.6822 100.753 25.4681 96.8019 26.3224 92.7574C27.1768 88.7133 29.0537 85.0377 31.9534 81.7306C34.5275 78.7947 37.5161 76.6824 40.9191 75.3936C44.3175 74.0419 47.8921 73.5466 51.6425 73.9081L51.4432 82.2194C46.0477 81.7556 41.6635 83.4471 38.2906 87.2944C36.4266 89.4202 35.2643 91.701 34.8036 94.1364C34.3431 96.5718 34.553 98.9587 35.4335 101.297C36.3435 103.602 37.8781 105.672 40.0373 107.507C42.2305 109.372 44.5836 110.577 47.0961 111.123C49.6383 111.634 52.1456 111.469 54.6191 110.627C57.0583 109.755 59.2393 108.223 61.1622 106.029C62.8487 104.106 63.9662 102.081 64.514 99.9558C65.0913 97.7963 65.143 95.6904 64.6691 93.6388L61.8933 91.2788L53.8156 100.491L47.8009 95.3784L61.8698 79.3326L71.8945 87.8541C73.3049 91.7033 73.6242 95.7733 72.8526 100.065C72.0759 104.293 70.1638 108.145 67.1163 111.621Z" fill="black"/>
<path d="M80.2064 45.371L97.6007 39.6554L98.1353 33.4171L107.477 30.3477L102.92 79.2185L100.021 80.1711L66.6326 43.7684L75.9741 40.6991L80.2064 45.371ZM96.0845 63.6995L96.9595 47.6912L85.6207 51.4168L96.0845 63.6995Z" fill="black"/>
<path d="M194.124 95.3922L184.923 79.7746L178.611 80.5199L173.669 72.1327L223.2 66.6489L224.734 69.2519L195.274 108.805L190.333 100.418L194.124 95.3922ZM209.146 76.3768L193.046 78.7687L199.043 88.9493L209.146 76.3768Z" fill="black"/>
<path d="M122.545 156.245L106.791 144.717L100.364 146.665L105.02 161.556L96.2568 164.212L83.0703 122.031L99.168 117.152C102.153 116.247 104.995 116.015 107.691 116.458C110.374 116.857 112.691 117.904 114.642 119.599C116.623 121.237 118.033 123.399 118.872 126.083C119.711 128.767 119.787 131.357 119.098 133.851C118.409 136.345 117.076 138.522 115.099 140.38L132.412 153.255L122.545 156.245ZM97.9869 139.06L105.322 136.837C107.355 136.22 108.762 135.188 109.541 133.739C110.363 132.277 110.487 130.63 109.914 128.798C109.355 127.008 108.318 125.737 106.803 124.983C105.288 124.229 103.536 124.154 101.546 124.757L94.2106 126.98L97.9869 139.06Z" fill="black"/>
<path d="M169.687 108.657L176.762 114.399L148.253 148.456L141.178 142.714L169.687 108.657Z" fill="black"/>
<path d="M208.925 123.984L231.267 163.168L228.602 164.641L192.415 153.356L205.581 176.446L197.586 180.866L175.244 141.682L177.85 140.241L214.03 151.377L200.93 128.403L208.925 123.984Z" fill="black"/>
</g>
<defs>
<clipPath id="clip0_1329_13263">
<rect width="260" height="260" fill="white"/>
</clipPath>
</defs>
</svg>
