<svg width="4" height="6" fill="none" xmlns="http://www.w3.org/2000/svg"><path d="M1.584 4.464v-.176c0-.187.019-.352.056-.496.043-.144.112-.275.208-.392.096-.123.176-.213.24-.272.064-.064.163-.152.296-.264.112-.09.2-.163.264-.216.064-.059.133-.133.208-.224.08-.096.136-.2.168-.312.037-.112.056-.237.056-.376a.995.995 0 00-.144-.536.877.877 0 00-.384-.352 1.203 1.203 0 00-.56-.128 1.18 1.18 0 00-.776.264.922.922 0 00-.336.696H.232c.021-.496.2-.885.536-1.168.341-.288.75-.432 1.224-.432.245 0 .472.04.68.12.213.075.4.181.56.32.16.139.285.315.376.528.09.208.136.437.136.688 0 .16-.019.31-.056.448a1.614 1.614 0 01-.12.344c-.043.09-.107.184-.192.28-.085.096-.157.17-.216.224a23.351 23.351 0 00-.448.376 2.407 2.407 0 00-.168.168.925.925 0 00-.152.208 1.153 1.153 0 00-.128.504v.176h-.68zM1.536 6v-.848h.776V6h-.776z" fill="#000"/></svg>