<svg width="134" height="90" fill="none" xmlns="http://www.w3.org/2000/svg"><path d="M68.349 89.85c-24.71 0-44.817-20.12-44.817-44.85C23.532 20.271 43.64.15 68.35.15S113.166 20.271 113.166 45c0 24.73-20.106 44.85-44.817 44.85zm0-86.4C45.455 3.45 26.83 22.09 26.83 45c0 22.911 18.625 41.55 41.519 41.55S109.868 67.911 109.868 45c0-22.91-18.625-41.55-41.519-41.55zm65.405 70.308L127.969 88.2h-.963l-4.032-8.898-4.055 8.898h-.963l-5.785-14.442h3.297l3.223 8.382 3.777-8.64h.986l3.792 8.595 3.22-8.337h3.288zM12.045 73.8h2.944v5.52h6.385V73.8h2.953v14.4h-2.944v-6.218H14.99V88.2h-2.944V73.8z" fill="#000"/><path d="M69.299 32.964a7.857 7.857 0 01-3.57-1.86 7.413 7.413 0 01-2.075-3.249 7.28 7.28 0 01-.123-3.93 7.229 7.229 0 015.19-5.43 7.903 7.903 0 014.022-.05 7.337 7.337 0 015.178 4.436l-2.435 1.2a4.948 4.948 0 00-5.911-2.952 4.328 4.328 0 00-1.979 1.257 5.559 5.559 0 00-1.118 4.8c.224.792.66 1.508 1.26 2.07a5.03 5.03 0 002.295 1.176 4.91 4.91 0 002.255.042 4.294 4.294 0 001.852-.9l.27-1.146-3.86-.918.599-2.484 6.724 1.6-.984 4.136a7.616 7.616 0 01-3.39 2.1 7.83 7.83 0 01-4.2.102zm-21.415 6.9a7.897 7.897 0 01-3.163 2.49 7.41 7.41 0 01-3.816.546 7.604 7.604 0 01-6.014-4.627 7.414 7.414 0 01-.416-3.846 7.94 7.94 0 011.61-3.69 7.354 7.354 0 016.184-2.891l.08 2.7a4.938 4.938 0 00-5.122 4.172 4.32 4.32 0 00.33 2.322c.358.77.902 1.438 1.582 1.944a5.19 5.19 0 002.326 1.053 4.487 4.487 0 002.399-.3 5.061 5.061 0 002.017-1.61 4.864 4.864 0 00.965-2.038 4.302 4.302 0 00-.06-2.06l-.92-.7-2.428 3.142-2.018-1.563 4.227-5.473 3.364 2.604a7.588 7.588 0 01.521 3.96 7.802 7.802 0 01-1.648 3.864zm3.027-21.811l5.477-2.154.06-2.04 2.941-1.164-.6 16.002-.899.36-11.343-11.28 2.937-1.16 1.427 1.436zm5.414 5.7v-5.235l-3.564 1.41 3.564 3.825zm31.983 8.62l-3.225-4.929-2.009.354-1.733-2.649L97.128 22.5l.536.822-8.75 13.401-1.733-2.646 1.127-1.704zm4.479-6.456l-5.117 1.059 2.098 3.213 3.019-4.272zM66.523 51.622l-5.255-3.48-2.023.76 1.753 4.77-2.76 1.016-4.971-13.527 5.072-1.86a5.916 5.916 0 012.722-.372 4.245 4.245 0 012.281.9 4.347 4.347 0 011.472 2.037 4.47 4.47 0 01-.959 4.725l5.777 3.9-3.109 1.131zm-8.175-5.172l2.312-.852a2.14 2.14 0 001.298-1.08 2 2 0 00.032-1.617 1.966 1.966 0 00-1.064-1.2 2.174 2.174 0 00-1.69.018l-2.312.85 1.424 3.881zM80.796 35.3l2.368 1.747-8.538 11.592-2.38-1.75 8.55-11.588zm12.848 4.3l7.851 12.378-.827.528-11.8-3.036 4.629 7.293-2.485 1.578-7.854-12.378.81-.513 11.795 3-4.604-7.26 2.485-1.59zM5.567 88.326a6.49 6.49 0 01-3.298-.843A6.334 6.334 0 010 85.172l2.03-1.5c.421.582.938 1.09 1.528 1.5a3.498 3.498 0 002.009.56 2.46 2.46 0 001.499-.41 1.401 1.401 0 00.545-1.167 1.132 1.132 0 00-.416-.949 6.378 6.378 0 00-1.421-.822l-1.55-.69a7.918 7.918 0 01-2.575-1.706 3.358 3.358 0 01-.918-2.4 3.7 3.7 0 01.6-2.118 4.059 4.059 0 011.724-1.425c.77-.34 1.604-.51 2.446-.499a5.392 5.392 0 012.893.739 5.173 5.173 0 011.9 1.965l-2.008 1.535c-.744-1.096-1.66-1.644-2.752-1.644a2.187 2.187 0 00-1.29.37 1.149 1.149 0 00-.5 1.013 1.2 1.2 0 00.369.9c.406.297.847.543 1.313.733l1.637.713a7.83 7.83 0 012.698 1.77 3.42 3.42 0 01.872 2.4 3.975 3.975 0 01-.653 2.266 4.198 4.198 0 01-1.8 1.5 6.146 6.146 0 01-2.613.519z" fill="#000"/></svg>