<svg width="110" height="74" fill="none" xmlns="http://www.w3.org/2000/svg"><path d="M56.107 73.877c-20.285 0-36.79-16.544-36.79-36.877 0-20.333 16.505-36.877 36.79-36.877S92.897 16.667 92.897 37c0 20.333-16.505 36.877-36.79 36.877zm0-71.04C37.314 2.837 22.025 18.162 22.025 37c0 18.838 15.289 34.163 34.082 34.163C74.901 71.163 90.19 55.838 90.19 37c0-18.838-15.29-34.163-34.083-34.163zM109.798 60.645l-4.749 11.875h-.79l-3.31-7.316-3.33 7.316h-.79L92.08 60.646h2.707l2.646 6.891 3.1-7.104h.81l3.113 7.067 2.643-6.855h2.699zM9.888 60.68h2.417v4.539h5.241v-4.54h2.424v11.84h-2.416v-5.113h-5.25v5.114H9.889V60.68z" fill="#fff"/><path d="M56.887 27.104a6.447 6.447 0 01-2.93-1.53 6.097 6.097 0 01-1.703-2.671 5.995 5.995 0 01-.101-3.231 5.946 5.946 0 011.505-2.831 5.926 5.926 0 012.754-1.634 6.477 6.477 0 013.303-.042 6.02 6.02 0 014.25 3.648l-1.998.987a4.066 4.066 0 00-1.963-2.145 4.052 4.052 0 00-2.89-.282 3.553 3.553 0 00-1.624 1.033 4.573 4.573 0 00-.918 3.947c.183.65.54 1.24 1.033 1.702a4.14 4.14 0 001.885.967c.606.155 1.24.167 1.85.034a3.524 3.524 0 001.522-.74l.221-.942-3.17-.755.493-2.042 5.52 1.315-.808 3.401a6.25 6.25 0 01-2.783 1.727 6.418 6.418 0 01-3.448.084zM39.307 32.777a6.485 6.485 0 01-2.596 2.047 6.076 6.076 0 01-3.133.45 6.237 6.237 0 01-2.974-1.242 6.26 6.26 0 01-1.962-2.562 6.106 6.106 0 01-.342-3.163 6.533 6.533 0 011.322-3.034 6.04 6.04 0 015.076-2.378l.067 2.22c-1-.049-1.983.274-2.76.908a4.067 4.067 0 00-1.446 2.524c-.087.649.007 1.31.27 1.909.295.632.742 1.181 1.3 1.598.555.443 1.211.741 1.91.866.666.1 1.347.014 1.968-.247a4.155 4.155 0 001.657-1.324 4.003 4.003 0 00.792-1.675 3.543 3.543 0 00-.05-1.695l-.755-.575-1.993 2.583-1.656-1.285 3.47-4.5 2.76 2.142a6.248 6.248 0 01.429 3.256 6.421 6.421 0 01-1.354 3.177zM41.793 14.844l4.496-1.77.05-1.678 2.413-.957-.492 13.157-.738.296-9.312-9.275 2.412-.954 1.171 1.181zm4.444 4.687v-4.304l-2.926 1.159 2.926 3.145zM72.492 26.618l-2.648-4.053-1.649.291-1.422-2.178L79.732 18.5l.44.676-7.183 11.019-1.423-2.176.926-1.401zm3.676-5.308l-4.2.87 1.722 2.642 2.478-3.512zM54.608 42.444l-4.313-2.861-1.662.624 1.44 3.922-2.266.836-4.08-11.122 4.163-1.53a4.85 4.85 0 012.235-.306 3.481 3.481 0 011.873.74c.558.427.978 1.01 1.208 1.675a3.682 3.682 0 01-.788 3.885l4.742 3.207-2.552.93zm-6.71-4.253l1.897-.7a1.755 1.755 0 001.066-.888 1.646 1.646 0 00.027-1.33 1.616 1.616 0 00-.874-.986 1.783 1.783 0 00-1.388.014L46.73 35l1.169 3.192zM66.325 29.025l1.944 1.436-7.009 9.531-1.954-1.438 7.019-9.529zM76.872 32.56l6.445 10.177-.68.435-9.685-2.497 3.8 5.997-2.04 1.297-6.448-10.177.664-.422 9.684 2.467-3.78-5.97 2.04-1.307zM4.57 72.623a5.32 5.32 0 01-2.707-.693A5.203 5.203 0 010 70.03l1.666-1.233c.346.48.77.896 1.255 1.234.49.318 1.065.479 1.649.46.436.024.867-.094 1.23-.337a1.152 1.152 0 00.448-.96.932.932 0 00-.342-.779 5.239 5.239 0 00-1.166-.676l-1.273-.567a6.497 6.497 0 01-2.114-1.404A2.76 2.76 0 01.6 63.795a3.047 3.047 0 01.493-1.742 3.333 3.333 0 011.415-1.171 4.806 4.806 0 012.008-.41 4.421 4.421 0 012.374.607 4.25 4.25 0 011.56 1.616l-1.648 1.263c-.61-.901-1.364-1.352-2.26-1.352a1.793 1.793 0 00-1.057.303.944.944 0 00-.411.834.989.989 0 00.302.74c.334.244.696.446 1.078.602l1.344.587a6.43 6.43 0 012.215 1.455c.484.54.74 1.248.716 1.974.013.66-.174 1.31-.537 1.862a3.447 3.447 0 01-1.476 1.233 5.037 5.037 0 01-2.146.427z" fill="#fff"/></svg>