<svg width="44" height="28" fill="none" xmlns="http://www.w3.org/2000/svg"><g clip-path="url(#clip0_3810_10142)"><path d="M42.24.219H1.76C.91.219.22.904.22 1.75v24.5c0 .846.69 1.531 1.54 1.531h40.48c.85 0 1.54-.685 1.54-1.531V1.75c0-.846-.69-1.531-1.54-1.531z" stroke="#fff" stroke-opacity=".2" stroke-width=".5"/><path opacity=".2" d="M21.32 20.224c.06.05.124.102.188.151a7.727 7.727 0 01-4.264 1.277 7.731 7.731 0 01-2.946-.58 7.695 7.695 0 01-2.498-1.66 7.645 7.645 0 01-1.67-2.483 7.621 7.621 0 01.507-6.86 7.68 7.68 0 012.969-2.815 7.734 7.734 0 017.898.37c-.062.053-.125.101-.172.156a8.228 8.228 0 00-2.114 2.8 8.182 8.182 0 00-.751 3.42 8.227 8.227 0 002.852 6.224zm5.436-13.877a7.686 7.686 0 00-4.259 1.276c.061.054.124.102.171.157A8.2 8.2 0 0125.534 14a8.241 8.241 0 01-2.852 6.224l-.188.151a7.713 7.713 0 004.26 1.277 7.735 7.735 0 005.507-2.206 7.653 7.653 0 001.694-2.495 7.615 7.615 0 00-1.693-8.397 7.736 7.736 0 00-5.506-2.207zM22 7.987a7.634 7.634 0 00-2.166 2.67A7.59 7.59 0 0019.063 14a7.589 7.589 0 00.77 3.345A7.632 7.632 0 0022 20.015a7.64 7.64 0 002.167-2.67A7.594 7.594 0 0024.938 14a7.587 7.587 0 00-.77-3.343A7.632 7.632 0 0022 7.987z" fill="#fff"/></g><defs><clipPath id="clip0_3810_10142"><path fill="#fff" d="M0 0h44v28H0z"/></clipPath></defs></svg>