<svg width="44" height="28" fill="none" xmlns="http://www.w3.org/2000/svg"><g clip-path="url(#clip0_3810_10145)"><path d="M42.24.219H1.76C.91.219.22.904.22 1.75v24.5c0 .846.69 1.531 1.54 1.531h40.48c.85 0 1.54-.685 1.54-1.531V1.75c0-.846-.69-1.531-1.54-1.531z" stroke="#fff" stroke-opacity=".2" stroke-width=".5"/><path opacity=".2" d="M29.655 9.28a7.044 7.044 0 00-2.448-.42c-2.698 0-4.604 1.351-4.618 3.292-.017 1.425 1.355 2.229 2.392 2.705 1.064.49 1.42.798 1.417 1.236-.007.666-.85.968-1.635.968-1.077 0-1.666-.15-2.572-.524l-.335-.156-.383 2.234c.656.272 1.838.505 3.06.525 2.868 0 4.744-1.343 4.766-3.408.024-1.138-.719-1.999-2.28-2.71-.95-.461-1.539-.77-1.539-1.238 0-.414.505-.857 1.559-.857a5.001 5.001 0 012.046.385l.253.112.383-2.159-.066.015zm7.003-.24H34.55c-.657 0-1.15.18-1.438.827l-4.054 9.134h2.869l.573-1.498 3.502.003c.082.351.335 1.495.335 1.495h2.53l-2.21-9.96zm-17.95-.083h2.734l-1.71 9.965h-2.73l1.706-9.969v.004zm-6.94 5.492l.283 1.384 2.672-6.792h2.896l-4.303 9.946h-2.89l-2.36-8.422a.569.569 0 00-.252-.334 11.76 11.76 0 00-2.685-.987l.037-.21h4.4c.598.023 1.078.21 1.239.844l.96 4.576v-.005h.003zm21.516 1.017l1.09-2.788c-.014.03.224-.575.363-.949l.187.86.632 2.875h-2.273v.002h.001z" fill="#fff"/></g><defs><clipPath id="clip0_3810_10145"><path fill="#fff" d="M0 0h44v28H0z"/></clipPath></defs></svg>